<svg width="28" height="28" viewBox="0 0 28 28" fill="none" xmlns="http://www.w3.org/2000/svg">
<path d="M14 25.6667C20.4434 25.6667 25.6667 20.4434 25.6667 14C25.6667 7.55672 20.4434 2.33337 14 2.33337C7.55672 2.33337 2.33337 7.55672 2.33337 14C2.33337 20.4434 7.55672 25.6667 14 25.6667Z" stroke="black" stroke-width="2" stroke-linecap="round" stroke-linejoin="round"/>
<path d="M10.605 10.5001C10.8793 9.72033 11.4207 9.06285 12.1333 8.64404C12.8459 8.22524 13.6837 8.07215 14.4984 8.21188C15.313 8.35162 16.0519 8.77517 16.5842 9.4075C17.1165 10.0398 17.4079 10.8402 17.4066 11.6667C17.4066 14.0001 13.9066 15.1667 13.9066 15.1667" stroke="black" stroke-width="2" stroke-linecap="round" stroke-linejoin="round"/>
<path d="M14 19.8334H14.0117" stroke="black" stroke-width="2" stroke-linecap="round" stroke-linejoin="round"/>
</svg>
