<svg width="28" height="28" viewBox="0 0 28 28" fill="none" xmlns="http://www.w3.org/2000/svg">
<path d="M7 2.33337L3.5 7.00004V23.3334C3.5 23.9522 3.74583 24.5457 4.18342 24.9833C4.621 25.4209 5.21449 25.6667 5.83333 25.6667H22.1667C22.7855 25.6667 23.379 25.4209 23.8166 24.9833C24.2542 24.5457 24.5 23.9522 24.5 23.3334V7.00004L21 2.33337H7Z" stroke="black" stroke-width="2" stroke-linecap="round" stroke-linejoin="round"/>
<path d="M3.5 7H24.5" stroke="black" stroke-width="2" stroke-linecap="round" stroke-linejoin="round"/>
<path d="M18.6667 11.6666C18.6667 12.9043 18.175 14.0913 17.2999 14.9665C16.4247 15.8416 15.2377 16.3333 14 16.3333C12.7624 16.3333 11.5754 15.8416 10.7002 14.9665C9.82504 14.0913 9.33337 12.9043 9.33337 11.6666" stroke="black" stroke-width="2" stroke-linecap="round" stroke-linejoin="round"/>
</svg>
