<svg width="28" height="28" viewBox="0 0 28 28" fill="none" xmlns="http://www.w3.org/2000/svg">
<path d="M19.8333 24.5V22.1667C19.8333 20.929 19.3416 19.742 18.4665 18.8668C17.5913 17.9917 16.4043 17.5 15.1666 17.5H5.83329C4.59562 17.5 3.40863 17.9917 2.53346 18.8668C1.65829 19.742 1.16663 20.929 1.16663 22.1667V24.5" stroke="black" stroke-width="2" stroke-linecap="round" stroke-linejoin="round"/>
<path d="M10.5 12.8333C13.0774 12.8333 15.1667 10.744 15.1667 8.16667C15.1667 5.58934 13.0774 3.5 10.5 3.5C7.92271 3.5 5.83337 5.58934 5.83337 8.16667C5.83337 10.744 7.92271 12.8333 10.5 12.8333Z" stroke="black" stroke-width="2" stroke-linecap="round" stroke-linejoin="round"/>
<path d="M26.8334 24.4999V22.1666C26.8326 21.1326 26.4885 20.1282 25.855 19.311C25.2215 18.4938 24.3345 17.9101 23.3334 17.6516" stroke="black" stroke-width="2" stroke-linecap="round" stroke-linejoin="round"/>
<path d="M18.6666 3.65161C19.6704 3.90863 20.5602 4.49243 21.1955 5.31097C21.8309 6.12952 22.1758 7.13625 22.1758 8.17244C22.1758 9.20864 21.8309 10.2154 21.1955 11.0339C20.5602 11.8525 19.6704 12.4363 18.6666 12.6933" stroke="black" stroke-width="2" stroke-linecap="round" stroke-linejoin="round"/>
</svg>
